<svg width="475" height="286" viewBox="0 0 475 286" fill="none" xmlns="http://www.w3.org/2000/svg">
<rect x="118.146" y="90.0504" width="175.778" height="175.778" rx="87.8892" fill="url(#paint0_linear_1337_183)"/>
<path d="M228.386 145.883H260.965C260.965 145.883 264.585 145.883 264.585 149.494V179.484C264.585 179.484 264.585 183.095 268.205 183.095H298.974C298.974 183.095 302.594 183.095 302.594 179.484V149.133C302.594 149.133 302.594 145.521 306.214 145.521H338.794C338.794 145.521 342.414 145.521 342.414 149.133V181.64C342.414 181.64 342.414 185.252 338.794 185.252H306.519C306.519 185.252 302.899 185.252 302.899 188.863V192.836C302.899 192.836 302.899 196.448 306.519 196.448H320.694C320.694 196.448 324.314 196.448 324.314 200.06V227.51C324.314 227.51 324.314 231.122 327.934 231.122H359.427C359.427 231.122 363.047 231.122 363.047 234.734V267.24C363.047 267.24 363.047 270.852 359.427 270.852H326.848C326.848 270.852 323.228 270.852 323.228 267.24V239.79C323.228 239.79 323.228 236.178 319.608 236.178H288.115C288.115 236.178 284.495 236.178 284.495 232.566V226.437C284.495 226.437 284.495 222.826 280.875 222.826H268.205C268.205 222.826 264.585 222.826 264.585 226.437V257.488C264.585 257.488 264.585 261.1 260.965 261.1H228.386C228.386 261.1 224.766 261.1 224.766 257.488V224.982C224.766 224.982 224.766 221.37 228.386 221.37H259.46C259.46 221.37 263.08 221.37 263.08 217.758V189.225C263.08 189.225 263.08 185.613 259.46 185.613H228.386C228.386 185.613 224.766 185.613 224.766 182.001V149.494C224.766 149.494 224.766 145.883 228.386 145.883Z" fill="#AE95D4"/>
<path d="M175.778 181.023C175.778 168.84 183.146 157.867 194.423 153.256L337.577 94.7151C357.313 86.6444 378.932 101.161 378.932 122.483V255.28C378.932 271.848 365.501 285.28 348.932 285.28H205.778C189.21 285.28 175.778 271.848 175.778 255.28V181.023Z" fill="url(#paint1_linear_1337_183)" fill-opacity="0.75"/>
<rect x="180.821" y="174.338" width="35.2997" height="112.383" rx="10" transform="rotate(180 180.821 174.338)" fill="url(#paint2_linear_1337_183)" fill-opacity="0.75"/>
<rect x="98.6952" width="38.9018" height="123.909" rx="10" fill="url(#paint3_linear_1337_183)" fill-opacity="0.75"/>
<path d="M32.3951 210.686C47.6324 175.261 94.0257 166.775 120.816 194.513L135.076 209.277L138.816 213.969C157.848 237.844 186.719 251.75 217.252 251.75C234.001 251.75 250.484 247.556 265.196 239.551L291.043 225.486C320.676 212.695 355.199 221.105 375.628 246.093L380.165 251.642C383.166 255.314 386.727 258.49 390.716 261.054L397.576 265.465C399.054 266.414 400.286 267.699 401.173 269.215C405.522 276.651 400.159 286 391.545 286H81.9859C43.1995 286 17.0695 246.316 32.3951 210.686Z" fill="url(#paint4_linear_1337_183)"/>
<rect x="322.741" y="195.95" width="90.0504" height="90.0504" rx="10" fill="url(#paint5_linear_1337_183)"/>
<rect x="412.791" y="286" width="54.0302" height="30.2569" rx="5" transform="rotate(-90 412.791 286)" fill="url(#paint6_linear_1337_183)"/>
<path d="M350.116 249.98C350.116 240.033 358.179 231.97 368.126 231.97C378.073 231.97 386.136 240.033 386.136 249.98V286H350.116V249.98Z" fill="#F3C1A8"/>
<defs>
<linearGradient id="paint0_linear_1337_183" x1="206.035" y1="90.0504" x2="206.035" y2="265.829" gradientUnits="userSpaceOnUse">
<stop stop-color="#EDD37A"/>
<stop offset="1" stop-color="#D9D9D9"/>
</linearGradient>
<linearGradient id="paint1_linear_1337_183" x1="370.585" y1="77.8035" x2="184.107" y2="285.263" gradientUnits="userSpaceOnUse">
<stop stop-color="#A97EEB"/>
<stop offset="0.835" stop-color="#D9D9D9"/>
</linearGradient>
<linearGradient id="paint2_linear_1337_183" x1="198.831" y1="240.615" x2="198.471" y2="286.72" gradientUnits="userSpaceOnUse">
<stop stop-color="#EECC55"/>
<stop offset="1" stop-color="white"/>
</linearGradient>
<linearGradient id="paint3_linear_1337_183" x1="118.146" y1="77.4433" x2="118.146" y2="123.909" gradientUnits="userSpaceOnUse">
<stop stop-color="#EECC55"/>
<stop offset="1" stop-color="white"/>
</linearGradient>
<linearGradient id="paint4_linear_1337_183" x1="434.403" y1="257.255" x2="-3.51791" y2="186.752" gradientUnits="userSpaceOnUse">
<stop stop-color="#A0C3B8"/>
<stop offset="1" stop-color="#4B8A75"/>
</linearGradient>
<linearGradient id="paint5_linear_1337_183" x1="368.126" y1="286" x2="368.126" y2="199.552" gradientUnits="userSpaceOnUse">
<stop stop-color="#EDC2AD"/>
<stop offset="1" stop-color="#F08451"/>
</linearGradient>
<linearGradient id="paint6_linear_1337_183" x1="440.022" y1="316.257" x2="440.022" y2="287.21" gradientUnits="userSpaceOnUse">
<stop stop-color="#EDC2AD"/>
<stop offset="1" stop-color="#F08451"/>
</linearGradient>
</defs>
</svg>
